<svg viewBox="0 0 1000 1000" fill="none" xmlns="http://www.w3.org/2000/svg">
<path d="M0 0H1000V1000H0V0Z" fill="#216CFF"/>
<path d="M208.267 556.533C203.067 586.333 183.667 606.533 150.867 606.533C109.867 606.533 86.4667 573.533 86.4667 532.533C86.4667 491.333 109.667 458.133 150.867 458.133C181.067 458.133 200.867 476.933 207.067 504.933L188.467 506.133C183.867 486.333 170.267 475.333 150.867 475.333C118.467 475.333 104.867 502.133 104.867 532.533C104.867 562.733 118.667 589.333 150.867 589.333C171.467 589.333 185.267 577.133 189.467 555.333L208.267 556.533Z" fill="white"/>
<path d="M275.096 605.733C245.696 605.733 226.496 584.133 226.496 550.333C226.496 516.533 245.696 494.933 275.096 494.933C304.496 494.933 323.696 516.533 323.696 550.333C323.696 584.133 304.496 605.733 275.096 605.733ZM244.496 550.333C244.496 574.733 255.696 589.333 275.096 589.333C294.496 589.333 305.696 574.733 305.696 550.333C305.696 525.933 294.496 511.333 275.096 511.333C255.696 511.333 244.496 525.933 244.496 550.333Z" fill="white"/>
<path d="M436.912 461.333V603.333H421.312L420.712 588.533C414.912 599.133 402.112 605.733 387.312 605.733C359.712 605.733 342.512 584.333 342.512 550.333C342.512 516.333 359.712 494.933 387.312 494.933C401.512 494.933 413.912 501.133 419.712 510.933V461.333H436.912ZM360.512 550.333C360.512 574.333 372.312 589.333 390.912 589.333C409.512 589.333 421.312 574.333 421.312 550.333C421.312 525.933 409.512 510.533 390.912 510.533C372.312 510.533 360.512 525.933 360.512 550.333Z" fill="white"/>
<path d="M462.239 550.333C462.239 516.533 481.439 494.933 510.839 494.933C534.039 494.933 555.039 509.933 556.839 547.933L557.039 555.733H480.439C482.039 576.933 492.839 589.333 510.839 589.333C522.039 589.333 532.239 582.933 537.039 571.933L555.439 573.333C549.239 593.333 531.239 605.733 510.839 605.733C481.439 605.733 462.239 584.133 462.239 550.333ZM480.839 540.533H538.239C535.239 518.533 523.439 511.333 510.839 511.333C494.239 511.333 483.639 522.133 480.839 540.533Z" fill="white"/>
<path d="M106.867 803.4C110.667 822.4 123.867 835.2 146.267 835.2C164.267 835.2 176.267 828.2 176.267 814.2C176.267 799.8 163.867 791.2 135.667 784C112.667 778.2 91.4667 766.8 91.4667 743.8C91.4667 719.8 110.667 704.8 137.867 704.8C168.467 704.8 188.667 723.8 191.667 750L173.267 751.2C170.667 733.6 157.067 722 137.667 722C121.667 722 109.867 730.4 109.867 743.8C109.867 761.2 130.867 765.8 148.267 770.6C173.867 777.8 194.667 790.6 194.667 812.4C194.667 838.8 170.467 852.4 144.867 852.4C113.667 852.4 90.8667 833.4 88.4667 804.6L106.867 803.4Z" fill="white"/>
<path d="M224.942 720H242.142V744H270.542V759.2H242.142V821.6C242.142 830.4 246.342 834.8 254.742 834.8H270.142V850H254.742C235.542 850 224.942 839.8 224.942 821.6V759.2H209.542V744H224.942V720Z" fill="white"/>
<path d="M289.234 775.2C293.434 754.6 310.034 741.6 332.634 741.6C360.034 741.6 375.434 757.6 375.434 786V828.4C375.434 832.8 377.434 834.8 381.834 834.8H386.234V850H378.834C368.034 850 358.434 846.6 358.434 833.8C354.034 843.4 342.434 852.4 325.634 852.4C304.634 852.4 287.434 841.2 287.434 822.2C287.434 800.2 303.834 794.8 327.434 790.2L358.234 784.2C358.034 766.6 349.634 758 332.634 758C319.434 758 310.634 764.6 307.434 776.6L289.234 775.2ZM305.434 822.2C305.434 830.4 312.434 837.2 327.834 837.2C345.034 837.2 358.634 825.2 358.634 800.4V799.4L333.834 803.8C318.234 806.6 305.434 807.4 305.434 822.2Z" fill="white"/>
<path d="M407.706 708H424.906V800.6L475.106 744H498.506L457.106 789L500.506 850H479.306L445.306 800.8L424.906 823V850H407.706V708Z" fill="white"/>
<path d="M509.309 797C509.309 763.2 528.509 741.6 557.909 741.6C581.109 741.6 602.109 756.6 603.909 794.6L604.109 802.4H527.509C529.109 823.6 539.909 836 557.909 836C569.109 836 579.309 829.6 584.109 818.6L602.509 820C596.309 840 578.309 852.4 557.909 852.4C528.509 852.4 509.309 830.8 509.309 797ZM527.909 787.2H585.309C582.309 765.2 570.509 758 557.909 758C541.309 758 530.709 768.8 527.909 787.2Z" fill="white"/>
<path d="M622.981 828H644.781V850H622.981V828Z" fill="white"/>
</svg>
